<?xml version="1.0" standalone="no"?>
<!DOCTYPE svg PUBLIC "-//W3C//DTD SVG 1.1//EN"
"http://www.w3.org/Graphics/SVG/1.1/DTD/svg11.dtd">

<svg width="332" height="120" view_box="0 0 332 120"
xmlns="http://www.w3.org/2000/svg"
xmlns:link="http://www.w3.org/1999/xlink">\n\n<desc>Généré par Mocodo 2.3.7 le Wed, 10 Mar 2021 02:43:47</desc>

<rect id="frame" x="0" y="0" width="332" height="120" fill="#f7f7f7" stroke="none" stroke-width="0"/>

<!-- Association PEUT ENVOYER -->
<line x1="43" y1="60" x2="163" y2="60" stroke="#7fbc41" stroke-width="2"/>
<text x="82" y="77.0" fill="#c51b7d" font-family="Verdana" font-size="12">1,1</text>
<line x1="286" y1="60" x2="163" y2="60" stroke="#7fbc41" stroke-width="2"/>
<text x="222" y="77.0" fill="#c51b7d" font-family="Verdana" font-size="12">1,N</text>
<g id="association-PEUT ENVOYER">
	<path d="M 203 35 a 14 14 90 0 1 14 14 V 60 h -108 V 49 a 14 14 90 0 1 14 -14" fill="#b8e186" stroke="#b8e186" stroke-width="0"/>
	<path d="M 217 60.0 v 11 a 14 14 90 0 1 -14 14 H 123 a 14 14 90 0 1 -14 -14 V 60.0 H 108" fill="#e6f5d0" stroke="#e6f5d0" stroke-width="0"/>
	<rect x="109" y="35" width="108" height="50" fill="none" rx="14" stroke="#7fbc41" stroke-width="2"/>
	<line x1="109" y1="60" x2="217" y2="60" stroke="#7fbc41" stroke-width="1"/>
	<text x="116" y="52.7" fill="#000000" font-family="Verdana" font-size="12">PEUT ENVOYER</text>
</g>

<!-- Entity MESSAGE -->
<g id="entity-MESSAGE">
	<g id="frame-MESSAGE">
		<rect x="249" y="18" width="74" height="25" fill="#f1b6da" stroke="#f1b6da" stroke-width="0"/>
		<rect x="249" y="43.0" width="74" height="59" fill="#fde0ef" stroke="#fde0ef" stroke-width="0"/>
		<rect x="249" y="18" width="74" height="84" fill="none" stroke="#de77ae" stroke-width="2"/>
		<line x1="249" y1="43" x2="323" y2="43" stroke="#de77ae" stroke-width="1"/>
	</g>
	<text x="256" y="35.7" fill="#000000" font-family="Verdana" font-size="12">MESSAGE</text>
	<text x="254" y="60.8" fill="#000000" font-family="Verdana" font-size="12">idMessage</text>
	<line x1="254" y1="63" x2="317" y2="63" stroke="#000000" stroke-width="1"/>
	<text x="254" y="77.8" fill="#000000" font-family="Verdana" font-size="12">content</text>
	<text x="254" y="94.8" fill="#000000" font-family="Verdana" font-size="12">idUser</text>
</g>

<!-- Entity USER -->
<g id="entity-USER">
	<g id="frame-USER">
		<rect x="9" y="9" width="68" height="25" fill="#f1b6da" stroke="#f1b6da" stroke-width="0"/>
		<rect x="9" y="34.0" width="68" height="77" fill="#fde0ef" stroke="#fde0ef" stroke-width="0"/>
		<rect x="9" y="9" width="68" height="102" fill="none" stroke="#de77ae" stroke-width="2"/>
		<line x1="9" y1="34" x2="77" y2="34" stroke="#de77ae" stroke-width="1"/>
	</g>
	<text x="26" y="26.7" fill="#000000" font-family="Verdana" font-size="12">USER</text>
	<text x="14" y="51.7" fill="#000000" font-family="Verdana" font-size="12">idUser</text>
	<line x1="14" y1="54" x2="53" y2="54" stroke="#000000" stroke-width="1"/>
	<text x="14" y="68.8" fill="#000000" font-family="Verdana" font-size="12">email</text>
	<text x="14" y="85.8" fill="#000000" font-family="Verdana" font-size="12">name</text>
	<text x="14" y="102.8" fill="#000000" font-family="Verdana" font-size="12">password</text>
</g>
</svg>